REM MD5 3ea940fb9f4e0d1743dcc9ac225b1d94
FILE "Crown Knights, The - Jaja-uma! Quartet - Mega Dream Destruction+ (Japan).bin" BINARY
  TRACK 01 MODE2/2352
    INDEX 01 00:00:00
  TRACK 02 AUDIO
    INDEX 00 45:27:00
    INDEX 01 45:29:00
  TRACK 03 AUDIO
    INDEX 00 48:22:01
    INDEX 01 48:24:01
  TRACK 04 AUDIO
    INDEX 00 49:17:19
    INDEX 01 49:19:19
  TRACK 05 AUDIO
    INDEX 00 52:19:19
    INDEX 01 52:21:19
REM LEADOUT 52:59:63
